# xmcd CD database file
#
# Track frame offsets:
#	150
#	12760
#	26525
#	44305
#	54845
#	68640
#	78260
#	95040
#	105880
#	116150
#
# Disc length: 1709 seconds
#
# Revision: 0
# Processed by: cddbd v1.5.2PL0 Copyright (c) Steve Scherf et al.
# Submitted via: CDex 1.51
#
DISCID=6e06ab0a
DTITLE=MARTY ROBBINS - FROM THE HEART
DYEAR=1900
DGENRE=Country
TTITLE0=I'm So Lonesome I Could Cry 
TTITLE1=The Things That I Don't Know 
TTITLE2=Love's Gone Away
TTITLE3=Half As Much
TTITLE4=Oh Virginia
TTITLE5=I Never Let You Cross My Mind 
TTITLE6=I Can't Say Goodbye 
TTITLE7=Would You Take Me Back Again 
TTITLE8=Lolene
TTITLE9=I Feel Another Heartbreak Coming On 
EXTD=
EXTT0=
EXTT1=
EXTT2=
EXTT3=
EXTT4=
EXTT5=
EXTT6=
EXTT7=
EXTT8=
EXTT9=
PLAYORDER=
